<?xml version="1.0" encoding="utf-8"?>
<!-- Generator: Adobe Illustrator 18.0.0, SVG Export Plug-In . SVG Version: 6.00 Build 0)  -->
<!DOCTYPE svg PUBLIC "-//W3C//DTD SVG 1.1//EN" "http://www.w3.org/Graphics/SVG/1.1/DTD/svg11.dtd">
<svg version="1.1" id="Layer_1" xmlns="http://www.w3.org/2000/svg" xmlns:xlink="http://www.w3.org/1999/xlink" x="0px" y="0px"
	 viewBox="0 0 360 360" enable-background="new 0 0 360 360" xml:space="preserve">
<rect x="-736" y="-158.8" display="none" fill="#D9DAEB" width="1101.3" height="674.7"/>
<g>
	<path fill="#FFFFFF" d="M156.1,282.9c49.8,10,93.5-1.3,117.5-21.4c9.9-8.3,19.9-20.9,23.6-35.6c13.4-53.4-26-97.6-56.5-81
		c-49.8,27.1-57.3,7.9-97.9-33.4C112,80.5,14.6,124.1,65.3,215.7C85.9,253,120.5,275.8,156.1,282.9z"/>
	<g>
		<g>
			<g>
				
					<rect x="72.3" y="105.8" transform="matrix(0.9073 -0.4204 0.4204 0.9073 -39.9953 43.3707)" fill="#FDA65A" width="12.1" height="13.3"/>
			</g>
			<g>
				<path fill="#001A53" d="M86.7,103.8l-20.6,9.5l-1.5-3.2c-1.1-2.3-0.1-5,2.2-6l12.9-6c2.1-1,4.6-0.1,5.6,2l1.5,3.2
					C86.9,103.5,86.9,103.7,86.7,103.8z"/>
			</g>
		</g>
		<g>
			<path fill="#FDA65A" d="M116.2,112.8c41.5,27.1,20,86-29.3,79.8c-3.8-0.5-7.4-1.7-10.6-3.8c-41.9-27-20.4-86.2,29-80
				C109.2,109.3,112.9,110.7,116.2,112.8z"/>
		</g>
		<g>
			<g>
				<path fill="#EBEBFB" d="M127.6,135.9c0.2,0.5,0.4,0.9,0.6,1.4c1.6,3.8,2.5,7.9,2.6,12c0.2,4.5-0.6,8.9-2.1,13.2
					c-1.6,4.2-3.9,8.1-6.9,11.4c-3.1,3.4-6.9,6.2-11.1,8.2c-1.6,0.8-3.3,1.4-5,1.9c-2.7,0.8-5.5,1.2-8.4,1.3c-0.5,0-1.1,0-1.6,0
					c-3.9,0-7.8-0.8-11.6-2.1c-0.6-0.2-1.2-0.5-1.8-0.7c-3.5-1.5-6.8-3.6-9.6-6.2c-1.7-1.6-3.3-3.3-4.6-5.1c-1.1-1.5-2-3-2.9-4.7
					c-0.2-0.5-0.5-0.9-0.7-1.4c-2-4.3-3.1-8.8-3.2-13.4c-0.2-4.5,0.6-8.9,2.1-13.2c1.6-4.2,3.9-8.1,6.9-11.4
					c3.1-3.4,6.9-6.2,11.1-8.2c2.1-1,4.4-1.8,6.6-2.3c2.2-0.5,4.5-0.8,6.8-0.9c3.9-0.1,7.7,0.4,11.3,1.5c0.6,0.2,1.2,0.4,1.8,0.6
					c3.7,1.4,7.2,3.3,10.2,5.9c0.4,0.3,0.8,0.7,1.2,1c2.1,1.9,4,4.1,5.6,6.4C126,132.7,126.9,134.3,127.6,135.9z"/>
			</g>
			<g>
				<path fill="#FFFFFF" d="M128.3,137.3c1.6,3.8,2.5,7.9,2.6,12c0.2,4.5-0.6,8.9-2.1,13.2c-1.6,4.2-3.9,8.1-6.9,11.4
					c-3.1,3.4-6.9,6.2-11.1,8.2c-1.6,0.8-3.3,1.4-5,1.9c-2.7,0.8-5.5,1.2-8.4,1.3c-0.5,0-1.1,0-1.6,0c-3.9,0-7.8-0.8-11.6-2.1
					c-0.6-0.2-1.2-0.5-1.8-0.7c-3.5-1.5-6.8-3.6-9.6-6.2c-1.7-1.6-3.3-3.3-4.6-5.1c-1.1-1.5-2-3-2.9-4.7c-1.6-3.8-2.5-7.9-2.6-12
					c-0.2-4.5,0.6-8.9,2.1-13.2c1.6-4.2,3.9-8.1,6.9-11.4c3.1-3.4,6.9-6.2,11.1-8.2c2.1-1,4.4-1.8,6.6-2.3c2.2-0.5,4.5-0.8,6.8-0.9
					c3.9-0.1,7.7,0.4,11.3,1.5c0.6,0.2,1.2,0.4,1.8,0.6c3.7,1.4,7.2,3.3,10.2,5.9c0.4,0.3,0.8,0.7,1.2,1c2.1,1.9,4,4.1,5.6,6.4
					C127,135.1,127.7,136.2,128.3,137.3z"/>
			</g>
			<g>
				<g>
					<g>
						<g>
							<path fill="#001A53" d="M86.9,130.7L86.9,130.7c-0.3,0.1-0.6,0-0.8-0.3l-2.3-4.9c-0.1-0.3,0-0.6,0.3-0.8l0,0
								c0.3-0.1,0.6,0,0.8,0.3l2.3,4.9C87.3,130.3,87.2,130.6,86.9,130.7z"/>
						</g>
					</g>
					<g>
						<g>
							<path fill="#001A53" d="M108,176.3L108,176.3c-0.3,0.1-0.6,0-0.8-0.3l-2.3-4.9c-0.1-0.3,0-0.6,0.3-0.8h0
								c0.3-0.1,0.6,0,0.8,0.3l2.3,4.9C108.4,175.8,108.3,176.2,108,176.3z"/>
						</g>
					</g>
				</g>
				<g>
					<g>
						<g>
							<path fill="#001A53" d="M76.2,159.7L76.2,159.7c0.1,0.3,0,0.6-0.3,0.8l-4.9,2.3c-0.3,0.1-0.6,0-0.8-0.3l0,0
								c-0.1-0.3,0-0.6,0.3-0.8l4.9-2.3C75.8,159.3,76.1,159.5,76.2,159.7z"/>
						</g>
					</g>
					<g>
						<g>
							<path fill="#001A53" d="M121.8,138.6L121.8,138.6c0.1,0.3,0,0.6-0.3,0.8l-4.9,2.3c-0.3,0.1-0.6,0-0.8-0.3v0
								c-0.1-0.3,0-0.6,0.3-0.8l4.9-2.3C121.3,138.2,121.7,138.3,121.8,138.6z"/>
						</g>
					</g>
				</g>
				<g>
					<g>
						<g>
							
								<rect x="104.1" y="123.7" transform="matrix(0.9388 0.3443 -0.3443 0.9388 50.1265 -28.2891)" fill="#001A53" width="1.2" height="6.5"/>
						</g>
					</g>
					<g>
						<g>
							<path fill="#001A53" d="M86.3,177.2L86.3,177.2c-0.3-0.1-0.5-0.4-0.3-0.8l1.8-5c0.1-0.3,0.4-0.5,0.8-0.3l0,0
								c0.3,0.1,0.5,0.4,0.3,0.8l-1.8,5C86.9,177.2,86.6,177.3,86.3,177.2z"/>
						</g>
					</g>
				</g>
				<g>
					<g>
						<g>
							<path fill="#001A53" d="M75.5,143L75.5,143c-0.1,0.3-0.4,0.5-0.8,0.3l-5-1.8c-0.3-0.1-0.5-0.4-0.3-0.8v0
								c0.1-0.3,0.4-0.5,0.8-0.3l5,1.8C75.5,142.4,75.7,142.7,75.5,143z"/>
						</g>
					</g>
					<g>
						<g>
							<path fill="#001A53" d="M122.7,160.3L122.7,160.3c-0.1,0.3-0.4,0.5-0.8,0.3l-5-1.8c-0.3-0.1-0.5-0.4-0.3-0.8l0,0
								c0.1-0.3,0.4-0.5,0.8-0.3l5,1.8C122.7,159.7,122.8,160,122.7,160.3z"/>
						</g>
					</g>
				</g>
				<g>
					<g>
						<path fill="#536BCB" d="M110.4,150.1L99,150.8l-0.1-1l11.4-0.7c0.3,0,0.5,0.2,0.5,0.5l0,0
							C110.9,149.8,110.7,150.1,110.4,150.1z"/>
					</g>
				</g>
				<g>
					<g>
						<path fill="#001A53" d="M96.7,150.8l-16.1,7.5c-0.3,0.1-0.6,0-0.7-0.2l0,0c-0.1-0.3,0-0.6,0.2-0.7l15.2-7l-5.7-12.4
							c-0.1-0.3,0-0.6,0.2-0.7l0,0c0.3-0.1,0.6,0,0.7,0.2L96.7,150.8z"/>
					</g>
				</g>
				<g>
					<circle fill="#001A53" cx="96.1" cy="150.6" r="3.3"/>
				</g>
				<g>
					<circle fill="#565960" cx="96.1" cy="150.6" r="1.9"/>
				</g>
			</g>
		</g>
	</g>
	<g>
		<defs>
			<path id="SVGID_1_" d="M148.8,281.3c28.5,6.2,53.5,6.5,75.1,2.4c21.5-4.1,39.6-12.6,55-26.9c10.9-10.1,42.5-9.4,46.8-26.3
				C341,169,300,115.6,264.2,97.8c-53.6-26.7-83.4-33-129.9-35.9C84.1,58.8-7.4,97.9,50.9,203.4C74.7,246.3,126.5,276.4,148.8,281.3
				z"/>
		</defs>
		<clipPath id="SVGID_2_">
			<use xlink:href="#SVGID_1_"  overflow="visible"/>
		</clipPath>
		<g clip-path="url(#SVGID_2_)">
			<g>
				<g>
					<g>
						<path fill="#FDAE90" d="M201.1,159.7L201.1,159.7c-1.1,0-2.3,0.1-3.4,0.5c-6.8,1.9-10.8,8.9-8.9,15.7l0.5,1.9l0.5,1.7
							c0.4,1.2,0.7,2.3,1.1,3.4c0.7,2.3,1.6,4.5,2.4,6.8c0.9,2.2,1.8,4.5,2.7,6.7c1,2.2,2,4.4,3.2,6.7c1.1,2.2,2.3,4.4,3.7,6.6
							c1.3,2.2,2.8,4.4,4.5,6.7c1.7,2.2,3.6,4.4,6,6.6c0,0,0,0,0,0c1.2,1.1,2.5,2.2,3.9,3.2c0.7,0.5,1.5,1,2.4,1.5l0.3,0.2
							c0.1,0.1,0.3,0.1,0.4,0.2l0.8,0.4c0.5,0.3,1.1,0.5,1.6,0.7c2.2,0.9,4.4,1.4,6.5,1.6c2.1,0.2,4.1,0.2,5.9,0
							c3.7-0.4,6.8-1.3,9.5-2.4c2.8-1.1,5.3-2.3,7.6-3.6c2.3-1.3,4.5-2.7,6.6-4.2c4.1-2.9,7.9-6,11.4-9.3c1.8-1.6,3.5-3.3,5.1-5
							c0.8-0.9,1.7-1.7,2.5-2.6l1.2-1.3l1.3-1.4c3.2-3.6,3.4-9,0.3-12.9c-3.5-4.3-9.8-4.9-14-1.5l-0.5,0.4l-1.1,0.9l-1.2,1
							c-0.8,0.6-1.6,1.3-2.5,1.9c-1.7,1.3-3.3,2.5-5,3.7c-3.3,2.4-6.8,4.6-10.1,6.6c-1.7,1-3.4,1.8-5,2.6c-1.6,0.7-3.2,1.4-4.6,1.7
							c-1.4,0.4-2.7,0.6-3.5,0.6c-0.4,0-0.7-0.1-0.8-0.1c-0.1-0.1-0.1-0.1,0.1-0.1c0,0,0.1,0,0.1,0c0,0,0,0,0.1,0c0,0,0,0,0,0
							L201.1,159.7z"/>
						<path fill="#FDAE90" d="M232.7,205.8L232.7,205.8L232.7,205.8L232.7,205.8c-0.2-0.1-0.3-0.2-0.5-0.4c-0.3-0.3-0.7-0.6-1.2-1.1
							c-0.9-0.9-1.9-2.1-2.8-3.4c-1-1.4-2-2.9-2.9-4.5c-0.9-1.6-1.8-3.3-2.7-5.1c-0.9-1.8-1.7-3.6-2.6-5.4c-0.8-1.9-1.6-3.7-2.4-5.7
							c-0.6-1.4-1.1-2.8-1.6-4.1c-0.2-0.5-0.4-1.1-0.6-1.6c-0.4-1-0.7-1.9-1.1-2.9l-0.5-1.4l-0.5-1.3l-0.2-0.5
							c-0.9-2.7-2.7-4.8-4.9-6.3L232.7,205.8z"/>
					</g>
				</g>
				<path fill="#FDAE90" d="M286.9,181.2c0,0,9.5-3.5,14.9-1.7c5.4,1.7,4.4,6.7,4.4,6.7S288.4,185.6,286.9,181.2z"/>
				<g>
					<g>
						<g>
							<path fill="#FA7160" d="M320.4,231.2c-19.9,2.1-39.8,2.3-59.8,0.6c0.3-1.1,0.8-2.6,1.2-4.4c0.1-0.5,0.3-1,0.4-1.6
								c2.3-8.7,5.5-22.7,7.6-31.9c0.7-3.2,1.3-5.8,1.7-7.4l36.9-0.4c0.2,0.6,0.4,1.4,0.6,2.4c2,8.1,6.5,26.3,9.5,36.8
								c0.2,0.5,0.3,1.1,0.4,1.6C319.6,228.6,320.1,230.1,320.4,231.2z"/>
						</g>
					</g>
					<g>
						<g>
							
								<rect x="269.6" y="191.2" transform="matrix(0.9779 0.2092 -0.2092 0.9779 49.6722 -51.847)" fill="#D9473C" width="0.6" height="35.3"/>
						</g>
					</g>
					<g>
						<g>
							
								<rect x="291.6" y="206.7" transform="matrix(0.228 0.9737 -0.9737 0.228 441.4866 -142.8431)" fill="#D9473C" width="38.4" height="0.6"/>
						</g>
					</g>
					<g>
						<g>
							<path fill="#D9473C" d="M297.8,202.4c6.1,9.7-4,20.1-13.9,14.2c-0.8-0.5-1.5-1.2-2-2c-6.1-9.7,4-20.1,13.9-14.2
								C296.6,200.9,297.3,201.6,297.8,202.4z"/>
						</g>
					</g>
					<g>
						<g>
							<g>
								<path fill="#D9473C" d="M319.1,226.8c-10,1.2-19.7,1.7-28.4,1.7c-12.8,0.1-23.2-0.6-28.8-1.1c0.1-0.5,0.3-1,0.4-1.6
									c9.5,0.9,31.9,2.2,56.3-0.6C318.8,225.8,318.9,226.3,319.1,226.8z"/>
							</g>
						</g>
					</g>
					<g>
						<g>
							<path fill="#D9473C" d="M309.2,188.5l-39.2,5.4c0.7-3.2,1.3-5.8,1.7-7.4l36.9-0.4C308.7,186.7,308.9,187.5,309.2,188.5z"/>
						</g>
					</g>
					<g>
						<g>
							<path fill="#FA7160" d="M310.4,187.5l-40.6,0.4c-0.9,0-1.6-0.7-1.6-1.5l0-2.4c0-0.9,0.7-1.6,1.5-1.6l40.6-0.4
								c0.9,0,1.6,0.7,1.6,1.5l0,2.4C312,186.8,311.3,187.5,310.4,187.5z"/>
						</g>
					</g>
				</g>
				<path fill="#FDAE90" d="M273.9,182.3c0,0,5.6-4.8,9.5-4.7c3.9,0.1,9,4.3,10.2,7.7c1.3,3.4-7.2-1-7.2-1l-7.4-2.3L273.9,182.3z"/>
				<g>
					<path fill="#536BCB" d="M215.1,167.8c0,0,4.6,9.6,6.9,14.4c2.3,4.8,7,11.7,7,11.7l-17.6,29c0,0-9.6-10.3-9.8-22.8
						C201.4,187.6,199,166.3,215.1,167.8z"/>
				</g>
				<g>
					<g>
						<g>
							<path fill="#FC806D" d="M227.8,215.6c0,0-0.1,0-0.1,0c-0.3-0.1-0.5-0.4-0.5-0.7c1.3-5.7,4.5-9,4.6-9.2c0.2-0.2,0.6-0.2,0.9,0
								c0.2,0.2,0.2,0.6,0,0.9c0,0-3.1,3.2-4.3,8.6C228.3,215.4,228.1,215.6,227.8,215.6z"/>
						</g>
					</g>
					<g>
						<g>
							<path fill="#FC806D" d="M226.8,208.1c-0.3,0-0.5-0.2-0.6-0.5c-0.1-0.3,0.1-0.7,0.4-0.7l5.4-1.4c0.3-0.1,0.7,0.1,0.7,0.4
								c0.1,0.3-0.1,0.7-0.4,0.7l-5.4,1.4C226.9,208.1,226.9,208.1,226.8,208.1z"/>
						</g>
					</g>
				</g>
			</g>
			<g>
				<g>
					<g>
						<g>
							<g>
								<g>
									<g>
										<g>
											<g>
												<path fill="#536BCB" d="M146,159.9c1.1-0.4,2.2-0.7,3.3-0.9c0.9-0.1,1.8-0.3,2.6-0.5h0c3.5-0.8,6.3-1.8,8.5-2.9
													c0.3-0.2,0.6-0.3,1-0.5c3.2-1.7,5.1-3.1,5.1-3.1l21.5,0.7c1.9,2.8,5.3,3.9,7.9,5.1c0.3,0.1,0.6,0.3,0.9,0.4
													c0.5,0.2,1.1,0.5,1.7,0.7c2.1,0.8,4.2,1.3,6.2,1.9c5.4,1.5,10,3.3,11.3,9.8c1.2,6-3.4,18.5-2.9,43.6
													c0,1.8,0.1,3.8,0.2,5.7c0.1,1.9,0.2,3.8,0.4,5.8c0,0.4,0.1,0.8,0.1,1.2c0.1,1.5,0.3,3,0.4,4.6c0.2,1.7,0.4,3.5,0.6,5.3
													c0.2,1.9,0.5,3.8,0.8,5.7c1.5,10.5,2.4,18.3,4.1,32.2c0.8,6.8,4.1,22.3,3.1,23.1c-6.5,14.5-48.9,4.4-80.6,4.2
													c-0.1-0.7-0.3-1-0.5-2.6c-2.6-7.2-6.1-28.5-8.4-42c-0.6-3.3-0.8-6.2-1-8.1c-0.2-1.9-0.3-4-0.4-6
													c-0.6-9.2-1.5-18.5-1-28.2c0-0.5,0-1.1,0.1-1.6c0.4-8-2.4-19-3-28.2C127.8,185.4,123.4,167.7,146,159.9z"/>
											</g>
										</g>
									</g>
								</g>
							</g>
						</g>
					</g>
				</g>
				<g>
					<g>
						<path fill="#143791" d="M212.9,219.7C212.9,219.7,212.9,219.7,212.9,219.7c0.3,0,0.6-0.3,0.6-0.6l-0.6-34.2
							c0-0.3-0.3-0.6-0.6-0.6c0,0,0,0,0,0c-0.3,0-0.6,0.3-0.6,0.6l0.6,34.2C212.3,219.4,212.6,219.7,212.9,219.7z"/>
					</g>
					<g>
						<path fill="#143791" d="M212.6,196c0.2,0,0.5-0.1,0.6-0.4l2.3-5.6c0.1-0.3,0-0.7-0.3-0.8c-0.3-0.1-0.7,0-0.8,0.3l-2.3,5.6
							c-0.1,0.3,0,0.7,0.3,0.8C212.5,195.9,212.5,196,212.6,196z"/>
					</g>
				</g>
				<g>
					<path fill="#143791" d="M147.1,301.5c0.1,0,0.1,0,0.2,0c0.3-0.1,0.5-0.5,0.4-0.8c-8.3-22.7-10.6-47.4-11.2-64
						c-0.6-18.1,0.9-31,0.9-31.1c0-0.3-0.2-0.6-0.5-0.7c-0.3,0-0.6,0.2-0.7,0.5c0,0.1-1.5,13.1-0.9,31.2
						c0.5,16.8,2.9,41.6,11.2,64.4C146.6,301.4,146.9,301.5,147.1,301.5z"/>
				</g>
				<g>
					<path fill="#143791" d="M196.2,276.1c4.8,0,9.9-0.5,15.5-1.7c0.3-0.1,0.5-0.4,0.5-0.7c-0.1-0.3-0.4-0.5-0.7-0.5
						c-20.9,4.5-36.4-1-45.6-6.4c-10-5.9-15.2-12.9-15.2-13c-0.2-0.3-0.6-0.3-0.8-0.1c-0.3,0.2-0.3,0.6-0.1,0.8
						c0.2,0.3,5.3,7.3,15.6,13.3C172.1,271.9,182.6,276.1,196.2,276.1z"/>
				</g>
				<g>
					<path fill="#143791" d="M192.6,265.7c1.3,0,2.7-0.1,4.2-0.4c0.3-0.1,0.5-0.4,0.5-0.7c-0.1-0.3-0.4-0.5-0.7-0.5
						c-16.3,2.9-24.5-12.8-24.6-13c-0.2-0.3-0.5-0.4-0.8-0.3c-0.3,0.2-0.4,0.5-0.3,0.8c0.1,0.2,2.2,4.2,6.4,8
						C180.6,262.5,185.7,265.7,192.6,265.7z"/>
				</g>
				<g>
					<path fill="#143791" d="M183.8,171.8c3.6,0,7-1.2,10.1-3.6c0.3-0.2,0.3-0.6,0.1-0.8c-0.2-0.3-0.6-0.3-0.8-0.1
						c-3.5,2.7-7.4,3.8-11.5,3.2c-10.3-1.4-19-12.8-19.1-12.9c-0.2-0.3-0.6-0.3-0.8-0.1c-0.3,0.2-0.3,0.6-0.1,0.8
						c0.4,0.5,9,11.9,19.9,13.4C182.3,171.8,183.1,171.8,183.8,171.8z"/>
				</g>
				<g>
					<g>
						<g>
							<path fill="#001A53" d="M195.9,100.8c0,0,3.1,3.1,3,6.8c0,0,2,3.9,1.5,7.2c-0.5,3.3-2.2,7.7-2.2,7.7s-2.8-15.8-6.4-16.6
								c-3.6-0.8-8.1-3.5-8.1-3.5S185.5,98.1,195.9,100.8z"/>
						</g>
					</g>
					<g>
						<g>
							<path fill="#001A53" d="M157.7,114.2c0,0-1.2,3.9,0.5,5.8c1.8,1.9-0.1,5.1,2.2,6.9c2.4,1.8,6.1,0.7,6.1,0.7s1-19.8,2.8-21.7
								C169.3,105.9,162.7,105.9,157.7,114.2z"/>
						</g>
					</g>
					<g>
						<g>
							<g>
								<g>
									<g>
										<g>
											<g>
												<g>
													<path fill="#FDAE90" d="M188.1,149.5v5.7c-0.7,0.5-1.3,1-2,1.4c-9.9,6-20.6-1.4-20.6-1.4v-19.8l19.9,12.4L188.1,149.5z
														"/>
												</g>
											</g>
										</g>
									</g>
								</g>
							</g>
						</g>
						<g>
							<g>
								<g>
									<g>
										<g>
											<g>
												<g>
													<path fill="#001A53" d="M188.1,149.4v5.9c-0.7,0.5-1.3,1-2,1.4c-8.4-3.3-14.6-12.2-14.6-12.2l13.9,3.4L188.1,149.4z"/>
												</g>
											</g>
										</g>
									</g>
								</g>
							</g>
						</g>
					</g>
					<g>
						<g>
							<g>
								<g>
									<g>
										<g>
											<g>
												<path fill="#FC806D" d="M195.2,124.2c0,0,3.2-3.8,5.1,0c1.8,3.8,0.4,11.6-4.5,10.3L195.2,124.2z"/>
											</g>
										</g>
									</g>
								</g>
							</g>
						</g>
					</g>
					<g>
						<g>
							<g>
								<g>
									<g>
										<g>
											<g>
												<path fill="#FDAE90" d="M198.7,137.7c0,0,0,11.8-12.3,11.8c-12.2,0-20.5-9.6-20.9-10c0,0,0,0,0,0l-0.1-2.5l-0.7-12.9
													l-0.4-6.9c0,0-1.6-12.4,10.2-14.6c8.6-1.7,16.7-0.2,20.7,4.3c0.1,0.1,0.3,0.3,0.4,0.4c1.3,1.6,2.1,3.5,2.3,5.8l0.4,12.4
													l0.1,3L198.7,137.7z"/>
											</g>
										</g>
									</g>
								</g>
							</g>
						</g>
					</g>
					<g>
						<g>
							<g>
								<g>
									<g>
										<g>
											<g>
												<ellipse fill="#FC806D" cx="178.3" cy="126.9" rx="4" ry="1.6"/>
											</g>
										</g>
									</g>
								</g>
							</g>
						</g>
					</g>
					<g>
						<g>
							<g>
								<g>
									<g>
										<g>
											<g>
												<path fill="#FC806D" d="M198.4,128.4c-0.3,0-0.6,0-1,0c-2.2,0-4-0.7-4-1.6c0-0.9,1.8-1.6,4-1.6c0.3,0,0.6,0,0.9,0
													L198.4,128.4z"/>
											</g>
										</g>
									</g>
								</g>
							</g>
						</g>
					</g>
					<g>
						<g>
							<g>
								<path fill="#001A53" d="M169.6,123.1c0,0,3.6,7.5,7.5,6.1c3.9-1.4,8.5-1.5,12.1,0c0,0,5.7-3.8,9.4-1.5
									c2.5,1.5,1.8,17.9-6.5,20.6c-8.3,2.7-19.8,0.3-22.9-7.5c-3.1-7.8-3.2-14.6-3.2-14.6L169.6,123.1z"/>
							</g>
						</g>
					</g>
					<g>
						<g>
							<g>
								<g>
									<g>
										<path fill="#30599C" d="M190,134c-4.5,0.2-8.3-3.5-8.4-3.5c-0.2-0.2-0.2-0.5,0-0.7c0.2-0.2,0.5-0.2,0.7,0
											c0.3,0.2,6.2,5.9,11.6,1.7c0.2-0.2,0.5-0.1,0.7,0.1c0.2,0.2,0.1,0.5-0.1,0.7C193,133.4,191.5,133.9,190,134z"/>
									</g>
								</g>
							</g>
						</g>
					</g>
					<g>
						<g>
							<g>
								<g>
									<g>
										<g>
											<g>
												<path fill="#001A53" d="M175.7,116.1L175.7,116.1c0.6,1.4,2.2,2,3.6,1.4c0.8-0.3,1.8-0.7,2.8-0.9
													c1.4-0.3,2.3-1.8,1.9-3.2l0,0C184,113.4,178.3,112.9,175.7,116.1z"/>
											</g>
										</g>
									</g>
								</g>
							</g>
						</g>
					</g>
					<g>
						<g>
							<g>
								<g>
									<g>
										<g>
											<g>
												<path fill="#001A53" d="M197.9,116.1L197.9,116.1c-0.6,1.4-2.2,2-3.6,1.4c-0.8-0.3-1.8-0.7-2.8-0.9
													c-1.4-0.3-2.3-1.8-1.9-3.2l0,0C189.5,113.4,195.2,112.9,197.9,116.1z"/>
											</g>
										</g>
									</g>
								</g>
							</g>
						</g>
					</g>
					<g>
						<g>
							<g>
								<g>
									<g>
										<g>
											<g>
												<path fill="#001A53" d="M195.6,107.2c-1.9-0.7-3.3,0-6.3,1.3c-4.3,1.9-9.2,0.2-13.5-2c-4.3-2.2-6.9,0.9-5.4,2.9
													c1.5,2,1.3,3.6-0.3,6.2c-1.6,2.5,3.1,3.7,0.5,5.7c-1.1,0.8-1,2.1-0.6,3.3c0.5,1.3-0.6,2.6-2,2.3l0,0
													c-1.4-0.4-3.4-2.8-3.4-2.8l-0.4-6.9c0,0-1.6-12.4,10.2-14.6c8.6-1.7,16.7-0.2,20.7,4.3
													C195.3,106.9,195.5,107.1,195.6,107.2z"/>
											</g>
										</g>
									</g>
								</g>
							</g>
						</g>
					</g>
					<g>
						<g>
							<g>
								<g>
									<g>
										<g>
											<g>
												<ellipse fill="#001A53" cx="180.8" cy="122.1" rx="1.2" ry="2.1"/>
											</g>
										</g>
									</g>
								</g>
							</g>
						</g>
					</g>
					<g>
						<g>
							<g>
								<g>
									<g>
										<g>
											<g>
												<ellipse fill="#001A53" cx="192.7" cy="122.1" rx="1.2" ry="2.1"/>
											</g>
										</g>
									</g>
								</g>
							</g>
						</g>
					</g>
					<g>
						<g>
							<g>
								<g>
									<g>
										<g>
											<g>
												<path fill="#001A53" d="M169.3,134.6c-0.1,0.1-1.6,3.7-3.8,4.8c0,0,0,0,0,0l-0.1-2.5
													C165.3,136.9,167.2,136.6,169.3,134.6z"/>
											</g>
										</g>
									</g>
								</g>
							</g>
						</g>
					</g>
					<g>
						<g>
							<g>
								<g>
									<g>
										<g>
											<g>
												<path fill="#FDAE90" d="M167.1,126.4c0,0-4.7-6.3-8.2-1.4c-2.8,4.1,2.5,14.8,8.2,11.1V126.4z"/>
											</g>
										</g>
									</g>
								</g>
							</g>
						</g>
					</g>
					<g>
						<g>
							<g>
								<g>
									<g>
										<g>
											<g>
												<path fill="#001A53" d="M166.5,134.3c-0.2,0-0.5-0.2-0.5-0.4c-0.5-4.8-4.5-6.5-4.7-6.5c-0.2-0.1-0.4-0.4-0.3-0.6
													c0.1-0.2,0.4-0.4,0.6-0.3c0.2,0.1,4.7,1.9,5.3,7.3C167,134,166.8,134.2,166.5,134.3
													C166.5,134.3,166.5,134.3,166.5,134.3z"/>
											</g>
										</g>
									</g>
								</g>
							</g>
						</g>
					</g>
					<g>
						<g>
							<g>
								<g>
									<g>
										<g>
											<g>
												<path fill="#001A53" d="M162,131.3c-0.1,0-0.3-0.1-0.4-0.2c-0.2-0.2-0.1-0.5,0.1-0.7c0.2-0.2,1.9-1.5,3.4-1.2
													c0.3,0.1,0.4,0.3,0.4,0.6c-0.1,0.3-0.3,0.4-0.6,0.3c-0.8-0.2-2.1,0.6-2.5,1C162.2,131.3,162.1,131.3,162,131.3z"/>
											</g>
										</g>
									</g>
								</g>
							</g>
						</g>
					</g>
					<g>
						<g>
							<g>
								<g>
									<g>
										<g>
											<g>
												<path fill="#001A53" d="M187.8,128.1c-0.3,0-0.5-0.2-0.5-0.5c0-0.3,0.2-0.5,0.5-0.5c1.8,0,2.6-0.9,2.9-1.4
													c-1.9-4-3.9-8-3.9-8.1c-0.1-0.2,0-0.5,0.2-0.6c0.2-0.1,0.5,0,0.6,0.2c0,0,2,4.2,4,8.3c0.1,0.1,0.1,0.3,0,0.4
													C191.7,126.1,190.7,128.1,187.8,128.1z"/>
											</g>
										</g>
									</g>
								</g>
							</g>
						</g>
					</g>
					<g>
						<g>
							<g>
								<g>
									<g>
										<g>
											<g>
												<path fill="#FA7160" d="M157.3,117.6l6-5.4l0.8-0.7l1.7-1.5c12-6.5,27.3-6.4,27.3-6.4s-3.5-11.9-18-11.7
													c-5.2,0.1-9.4,1.6-12.5,3.9c-0.5,0.4-1,0.8-1.5,1.3c-2.8,2.6-4.5,6-5,9.3C155,113.7,157.3,117.6,157.3,117.6z"/>
											</g>
										</g>
									</g>
								</g>
							</g>
						</g>
					</g>
					<g>
						<g>
							<g>
								<g>
									<g>
										<g>
											<g>
												<g>
													<g>
														<g>
															<g>
																<path fill="#D9473C" d="M163.2,112.3l0.8-0.7c-2.5-2.6-3.4-6.1-2.8-10.6c0.3-2,0.8-3.8,1.3-5.1
																	c-0.5,0.4-1,0.8-1.5,1.3c-0.3,1.1-0.6,2.3-0.8,3.7C159.5,105.5,160.6,109.4,163.2,112.3z"/>
															</g>
														</g>
													</g>
												</g>
											</g>
										</g>
									</g>
								</g>
							</g>
						</g>
					</g>
					<g>
						<g>
							<g>
								<g>
									<g>
										<g>
											<g>
												<g>
													<g>
														<g>
															<path fill="#D9473C" d="M181.7,94.6c0,0-5.4-1.6-12.4,2.1l1.3,3.9c0,0,6.7-2.7,11.5-2.8L181.7,94.6z"/>
														</g>
													</g>
												</g>
											</g>
										</g>
									</g>
								</g>
							</g>
						</g>
					</g>
					<g>
						<g>
							<g>
								<g>
									<g>
										<g>
											<g>
												<g>
													<g>
														<g>
															<path fill="#D9473C" d="M198.9,107.6c0,0,16.5-10.2,7.8-16.9c-8.6-6.6-28.7,3-40.6,19.1
																C166.2,109.8,188.9,99.1,198.9,107.6z"/>
														</g>
													</g>
												</g>
											</g>
										</g>
									</g>
								</g>
							</g>
						</g>
					</g>
				</g>
			</g>
			<g>
				<g>
					<g>
						<g>
							<path fill="#FDAE90" d="M181.9,238.6l-1,0.7l-0.9,0.6l-1.9,1.2c-1.2,0.8-2.5,1.6-3.7,2.3c-2.5,1.5-5,2.9-7.6,4.3
								c-5.2,2.8-10.5,5.4-16.4,7.5c-2.9,1.1-6,2.1-9.3,2.8c-3.3,0.8-6.8,1.3-10.8,1.3c-2,0-4.1-0.1-6.4-0.6c-2.3-0.4-4.7-1.2-7-2.4
								c-1.2-0.6-2.4-1.3-3.5-2.2c-0.6-0.4-1.1-0.8-1.6-1.3c-0.3-0.2-0.5-0.5-0.8-0.7l-0.1-0.1c-0.1-0.1-0.3-0.3-0.4-0.4
								c-0.3-0.3-0.6-0.6-0.8-0.9c-0.4-0.6-0.9-1.2-1.1-1.7c-0.1-0.3-0.3-0.6-0.4-0.8c-0.1-0.2-0.2-0.5-0.3-0.7l-0.1-0.4l-0.1-0.3
								c-0.1-0.2-0.1-0.4-0.2-0.7c-0.1-0.4-0.2-0.8-0.3-1.2c-0.1-0.3-0.1-0.7-0.2-1c-0.2-1.2-0.2-2.2-0.2-3c0-0.8,0-1.5,0.1-2.1
								c0.1-0.6,0.1-1.2,0.2-1.7c0.3-2.1,0.7-3.8,1.1-5.4c0.4-1.6,0.9-3.1,1.3-4.6c0.9-2.9,1.9-5.7,3-8.4c1.5-3.8,3-7.6,4.5-11.2
								c0.5-1.2,1-2.4,1.5-3.5c0.1-0.3,0.3-0.7,0.4-1c2.2-5.1,4.6-10.2,6.9-15.3c1.2-2.5,2.4-5,3.6-7.6l1.8-3.8l1.9-3.8
								c3.3-6.7,11.4-9.5,18.2-6.2c6.7,3.3,9.5,11.4,6.2,18.2c-0.1,0.2-0.2,0.3-0.2,0.5l-0.1,0.2l-1.9,3.5l-1.9,3.6
								c-1.3,2.4-2.5,4.8-3.7,7.1c-2.2,4.2-4.3,8.4-6.3,12.6c-0.3,0.6-0.6,1.2-0.9,1.8c-0.8,1.6-1.5,3.2-2.3,4.8
								c-1.5,3.2-2.9,6.4-4.3,9.6c-1,2.4-2,4.7-2.8,7c0,0,0,0.1,0,0.1c0.9-0.1,2-0.2,3-0.4c2.1-0.4,4.3-1,6.5-1.7
								c4.5-1.5,9.1-3.5,13.7-5.7c2.3-1.1,4.5-2.3,6.8-3.6c1.1-0.6,2.2-1.3,3.3-1.9l1.6-1l1.5-0.9l0.3-0.2
								c5.2-3.3,12.1-1.6,15.4,3.6C188.3,228.6,186.8,235.3,181.9,238.6z"/>
						</g>
					</g>
				</g>
				<g>
					<path fill="#FC806D" d="M143.3,212c-0.3,0.6-0.6,1.2-0.9,1.8c-0.8,1.6-1.5,3.2-2.3,4.8l-23.2-11c0.5-1.2,1-2.4,1.5-3.5
						L143.3,212z"/>
				</g>
				<g>
					<g>
						<g>
							<g>
								<g>
									<g>
										<path fill="#FDAE90" d="M197.6,227.2c-3.9,5.8-13.1,7.1-13.1,7.1c-7.7-0.2-11.2-5.6-12.7-9.3c-0.8-2-1.1-4.2-0.6-6.3
											c1.5-6.1-2.9-15.4,0.4-17.4c2.5-1.5,6.2,9.4,6.2,9.4s9.1-8.7,11.1-9c2-0.2,3.7,2.7,3.1,4.9c0,0,4.7,1.3,3.5,6.2
											c0,0,3.7,1.8,3.1,6c0,0,1.8,0.6,1.8,3.7C200.4,223.9,197.6,227.2,197.6,227.2z"/>
									</g>
								</g>
							</g>
						</g>
					</g>
				</g>
				<g>
					<g>
						<g>
							<g>
								<path fill="#FC806D" d="M123.2,240.2c-0.2,0-0.4-0.1-0.5-0.3c-0.2-0.3-0.1-0.7,0.2-0.8c3.5-2.2,9.2-3.9,9.5-4
									c0.3-0.1,0.7,0.1,0.8,0.4c0.1,0.3-0.1,0.7-0.4,0.8c-0.1,0-5.8,1.7-9.2,3.8C123.4,240.1,123.3,240.2,123.2,240.2z"/>
							</g>
						</g>
					</g>
					<g>
						<g>
							<g>
								<path fill="#FC806D" d="M131.8,236.3c-0.1,0-0.2,0-0.3-0.1c-2.4-1.5-6.6-1.2-6.7-1.2c-0.3,0-0.6-0.2-0.7-0.6
									c0-0.3,0.2-0.6,0.6-0.7c0.2,0,4.7-0.4,7.4,1.4c0.3,0.2,0.4,0.6,0.2,0.9C132.3,236.2,132.1,236.3,131.8,236.3z"/>
							</g>
						</g>
					</g>
				</g>
				<g>
					<g>
						<g>
							<g>
								<g>
									<path fill="#390228" d="M165.2,223c0,0,4.1,12,11.8,18.6c1.7,0,3.6-1.3,4.8-2.7c0,0-8-6.9-12.2-19.1
										C167.7,220.3,166.2,221.3,165.2,223z"/>
								</g>
							</g>
						</g>
					</g>
					<g>
						<g>
							<g>
								<g>
									
										<ellipse transform="matrix(0.8431 -0.5377 0.5377 0.8431 -96.6798 127.7839)" fill="#390228" cx="170.7" cy="229.6" rx="7" ry="6.6"/>
								</g>
							</g>
						</g>
					</g>
					<g>
						<g>
							<g>
								<g>
									<g>
										<g>
											<g>
												<g>
													<g>
														<g>
															<g>
																<g>
																	<path fill="#FFFFFF" d="M173.2,233.6c-2.3,1.5-5.4,0.9-6.8-1.3c-1.4-2.2-0.6-5.2,1.7-6.7c2.3-1.5,5.4-0.9,6.8,1.3
																		C176.3,229.1,175.5,232.1,173.2,233.6z"/>
																</g>
															</g>
														</g>
													</g>
												</g>
											</g>
										</g>
									</g>
								</g>
							</g>
						</g>
					</g>
				</g>
				<g>
					<g>
						<g>
							<path fill="#536BCB" d="M161.1,176.2c0.1,0.5,0.1,1,0.1,1.5c0.7,13-15.1,39-15.1,39l-2-0.8l-0.8-0.3l-13.3-5.3l-0.8-0.3
								l-14.6-5.8c0.8-2.8,1.9-5.5,4.8-11.6c0.2-0.5,0.5-1,0.7-1.6c1.6-3.4,3.8-7.7,6.6-13.4c2-4.1,3.9-6.8,5.9-8.8
								c0.2-0.2,0.4-0.4,0.6-0.6c1.3-1.2,2.6-2.1,4-3c5.2-3.1,11.6-3.2,16.5-0.1C156.8,168.3,159.2,172,161.1,176.2z"/>
						</g>
					</g>
				</g>
				<g>
					<g>
						<g>
							<g>
								<path fill="#143791" d="M146.1,217.3c-0.1,0-0.2,0-0.3-0.1c-0.3-0.2-0.4-0.5-0.3-0.8l13.4-25.2c0.2-0.3,0.5-0.4,0.8-0.3
									c0.3,0.2,0.4,0.5,0.3,0.8l-13.4,25.2C146.5,217.1,146.3,217.3,146.1,217.3z"/>
							</g>
						</g>
					</g>
					<g>
						<g>
							<g>
								<path fill="#143791" d="M156.2,198.1c-0.3,0-0.5-0.2-0.6-0.5c-0.1-0.3,0.1-0.7,0.5-0.7l4.1-0.8c0.3-0.1,0.7,0.1,0.7,0.5
									c0.1,0.3-0.1,0.7-0.5,0.7l-4.1,0.8C156.3,198.1,156.3,198.1,156.2,198.1z"/>
							</g>
						</g>
					</g>
				</g>
			</g>
		</g>
	</g>
	<g>
		<g>
			<g>
				<path fill="#536BCB" d="M75,254.4c0-3,2.4-5.4,5.4-5.4c3,0,5.4,2.4,5.4,5.4c0,3-2.4,5.4-5.4,5.4C77.5,259.8,75,257.4,75,254.4z
					 M76.5,254.4c0,2.2,1.8,3.9,3.9,3.9s3.9-1.8,3.9-3.9c0-2.2-1.8-3.9-3.9-3.9S76.5,252.3,76.5,254.4z"/>
			</g>
			<g>
				<g>
					<path fill="#FA7160" d="M62.4,260c0.4,0,0.7-0.3,0.7-0.7v-4.2c0-0.4-0.3-0.7-0.7-0.7c-0.4,0-0.7,0.3-0.7,0.7v4.2
						C61.7,259.7,62.1,260,62.4,260z"/>
				</g>
				<g>
					<path fill="#FA7160" d="M63.8,261.4H68c0.4,0,0.7-0.3,0.7-0.7c0-0.4-0.3-0.7-0.7-0.7h-4.2c-0.4,0-0.7,0.3-0.7,0.7
						C63.1,261.1,63.4,261.4,63.8,261.4z"/>
				</g>
				<g>
					<path fill="#FA7160" d="M56.8,261.4h4.2c0.4,0,0.7-0.3,0.7-0.7c0-0.4-0.3-0.7-0.7-0.7h-4.2c-0.4,0-0.7,0.3-0.7,0.7
						C56.1,261.1,56.5,261.4,56.8,261.4z"/>
				</g>
				<g>
					<path fill="#FA7160" d="M62.4,266.7c0.4,0,0.7-0.3,0.7-0.7v-4.2c0-0.4-0.3-0.7-0.7-0.7c-0.4,0-0.7,0.3-0.7,0.7v4.2
						C61.7,266.4,62.1,266.7,62.4,266.7z"/>
				</g>
			</g>
			<g>
				<g>
					<path fill="#FDA65A" d="M80.5,272.9c0.4,0,0.7-0.3,0.7-0.7V268c0-0.4-0.3-0.7-0.7-0.7c-0.4,0-0.7,0.3-0.7,0.7v4.2
						C79.8,272.6,80.1,272.9,80.5,272.9z"/>
				</g>
				<g>
					<path fill="#FDA65A" d="M81.8,274.3h4.2c0.4,0,0.7-0.3,0.7-0.7s-0.3-0.7-0.7-0.7h-4.2c-0.4,0-0.7,0.3-0.7,0.7
						S81.5,274.3,81.8,274.3z"/>
				</g>
				<g>
					<path fill="#FDA65A" d="M74.8,274.3h4.2c0.4,0,0.7-0.3,0.7-0.7s-0.3-0.7-0.7-0.7h-4.2c-0.4,0-0.7,0.3-0.7,0.7
						S74.5,274.3,74.8,274.3z"/>
				</g>
				<g>
					<path fill="#FDA65A" d="M80.5,279.6c0.4,0,0.7-0.3,0.7-0.7v-4.2c0-0.4-0.3-0.7-0.7-0.7c-0.4,0-0.7,0.3-0.7,0.7v4.2
						C79.8,279.3,80.1,279.6,80.5,279.6z"/>
				</g>
			</g>
		</g>
		<g>
			<g>
				<path fill="#FDA65A" d="M229.9,110.7c-3,0-5.4-2.4-5.4-5.4s2.4-5.4,5.4-5.4c3,0,5.4,2.4,5.4,5.4S232.9,110.7,229.9,110.7z
					 M229.9,101.4c-2.2,0-3.9,1.8-3.9,3.9s1.8,3.9,3.9,3.9c2.2,0,3.9-1.8,3.9-3.9S232.1,101.4,229.9,101.4z"/>
			</g>
			<g>
				<g>
					<path fill="#FA7160" d="M247.9,110.9c-0.4,0-0.7-0.3-0.7-0.7V106c0-0.4,0.3-0.7,0.7-0.7c0.4,0,0.7,0.3,0.7,0.7v4.2
						C248.6,110.6,248.3,110.9,247.9,110.9z"/>
				</g>
				<g>
					<path fill="#FA7160" d="M246.6,112.3h-4.2c-0.4,0-0.7-0.3-0.7-0.7c0-0.4,0.3-0.7,0.7-0.7h4.2c0.4,0,0.7,0.3,0.7,0.7
						C247.3,112,246.9,112.3,246.6,112.3z"/>
				</g>
				<g>
					<path fill="#FA7160" d="M253.5,112.3h-4.2c-0.4,0-0.7-0.3-0.7-0.7c0-0.4,0.3-0.7,0.7-0.7h4.2c0.4,0,0.7,0.3,0.7,0.7
						C254.2,112,253.9,112.3,253.5,112.3z"/>
				</g>
				<g>
					<path fill="#FA7160" d="M247.9,117.6c-0.4,0-0.7-0.3-0.7-0.7v-4.2c0-0.4,0.3-0.7,0.7-0.7c0.4,0,0.7,0.3,0.7,0.7v4.2
						C248.6,117.3,248.3,117.6,247.9,117.6z"/>
				</g>
			</g>
			<g>
				<g>
					<path fill="#536BCB" d="M229.9,123.8c-0.4,0-0.7-0.3-0.7-0.7v-4.2c0-0.4,0.3-0.7,0.7-0.7c0.4,0,0.7,0.3,0.7,0.7v4.2
						C230.6,123.4,230.3,123.8,229.9,123.8z"/>
				</g>
				<g>
					<path fill="#536BCB" d="M228.6,125.1h-4.2c-0.4,0-0.7-0.3-0.7-0.7c0-0.4,0.3-0.7,0.7-0.7h4.2c0.4,0,0.7,0.3,0.7,0.7
						C229.3,124.8,228.9,125.1,228.6,125.1z"/>
				</g>
				<g>
					<path fill="#536BCB" d="M235.5,125.1h-4.2c-0.4,0-0.7-0.3-0.7-0.7c0-0.4,0.3-0.7,0.7-0.7h4.2c0.4,0,0.7,0.3,0.7,0.7
						C236.2,124.8,235.9,125.1,235.5,125.1z"/>
				</g>
				<g>
					<path fill="#536BCB" d="M229.9,130.5c-0.4,0-0.7-0.3-0.7-0.7v-4.2c0-0.4,0.3-0.7,0.7-0.7c0.4,0,0.7,0.3,0.7,0.7v4.2
						C230.6,130.1,230.3,130.5,229.9,130.5z"/>
				</g>
			</g>
		</g>
	</g>
</g>
</svg>
