<?xml version="1.0" encoding="utf-8"?>
<!-- Generator: Adobe Illustrator 18.0.0, SVG Export Plug-In . SVG Version: 6.00 Build 0)  -->
<!DOCTYPE svg PUBLIC "-//W3C//DTD SVG 1.1//EN" "http://www.w3.org/Graphics/SVG/1.1/DTD/svg11.dtd">
<svg version="1.1" id="Layer_1" xmlns="http://www.w3.org/2000/svg" xmlns:xlink="http://www.w3.org/1999/xlink" x="0px" y="0px"
	 viewBox="0 0 360 360" enable-background="new 0 0 360 360" xml:space="preserve">
<rect x="-16" y="-158.8" display="none" fill="#D9DAEB" width="1101.3" height="674.7"/>
<g>
	<path fill="#FFFFFF" d="M161.1,266.5c58.4,11.7,109.5-1.6,137.7-25c11.6-9.7,23.3-24.5,27.6-41.7c15.6-62.6-30.5-114.4-66.2-94.9
		c-58.4,31.8-67.1,9.2-114.7-39.1c-36-36.5-150.2,14.6-90.7,122C78.9,231.4,119.4,258.1,161.1,266.5z"/>
	<g>
		<ellipse fill="#D9DAEB" cx="178.5" cy="285.6" rx="142.9" ry="5.6"/>
		<g>
			<g>
				<g>
					<g>
						<g>
							<g>
								<g>
									<path fill="#ABB1CF" d="M87.7,272.7c0,0-10-8.3-29.2-12.7c-13.6-3.1-26.3-19.9-26.3-19.9s22.2-6.1,36,4.2
										C81.9,254.6,87.7,272.7,87.7,272.7z"/>
								</g>
							</g>
						</g>
					</g>
				</g>
				<g>
					<g>
						<g>
							<g>
								<g>
									<g>
										<path fill="#7A83A8" d="M87.8,272.9c-0.1,0-0.3,0-0.4-0.1c-6.8-10.6-16.2-16.9-22.9-20.3c-7.3-3.7-13-4.8-13.1-4.8
											c-0.2,0-0.3-0.2-0.3-0.4c0-0.2,0.2-0.3,0.4-0.3c0.1,0,5.9,1.2,13.2,4.9c6.8,3.4,16.3,9.8,23.2,20.5
											C88.1,272.6,88.1,272.8,87.8,272.9C87.9,272.9,87.9,272.9,87.8,272.9z"/>
									</g>
								</g>
							</g>
						</g>
					</g>
				</g>
			</g>
			<g>
				<g>
					<g>
						<g>
							<g>
								<g>
									<path fill="#ABB1CF" d="M85.9,270c0,0-3.7-12.5-17.4-26.7c-9.6-10.1-10.9-31.1-10.9-31.1s21.8,7.2,27.6,23.4
										C91.1,251.7,85.9,270,85.9,270z"/>
								</g>
							</g>
						</g>
					</g>
				</g>
				<g>
					<g>
						<g>
							<g>
								<g>
									<g>
										<path fill="#7A83A8" d="M85.9,270.3c-0.1,0-0.3-0.2-0.2-0.3c0.2-12.6-4.2-23-7.9-29.6c-4-7.1-8.2-11.2-8.2-11.3
											c-0.1-0.1-0.1-0.3,0-0.5c0.1-0.1,0.3-0.1,0.5,0c0,0,4.2,4.2,8.3,11.4c3.8,6.6,8.2,17.2,8,29.9
											C86.4,270.2,86.2,270.3,85.9,270.3C86,270.3,86,270.3,85.9,270.3z"/>
									</g>
								</g>
							</g>
						</g>
					</g>
				</g>
			</g>
		</g>
		<g>
			<g>
				<g>
					<g>
						<g>
							<g>
								<g>
									<path fill="#ABB1CF" d="M259.4,170c0,0,10-8.3,29.2-12.7c13.6-3.1,26.3-19.9,26.3-19.9s-22.2-6.1-36,4.2
										C265.2,151.9,259.4,170,259.4,170z"/>
								</g>
							</g>
						</g>
					</g>
				</g>
				<g>
					<g>
						<g>
							<g>
								<g>
									<g>
										<path fill="#7A83A8" d="M259.2,170.2c0.1,0,0.3,0,0.4-0.1c6.8-10.6,16.2-16.9,22.9-20.3c7.3-3.7,13-4.8,13.1-4.8
											c0.2,0,0.3-0.2,0.3-0.4c0-0.2-0.2-0.3-0.4-0.3c-0.1,0-5.9,1.2-13.2,4.9c-6.8,3.4-16.3,9.8-23.2,20.5
											C258.9,169.9,259,170.1,259.2,170.2C259.2,170.2,259.2,170.2,259.2,170.2z"/>
									</g>
								</g>
							</g>
						</g>
					</g>
				</g>
			</g>
			<g>
				<g>
					<g>
						<g>
							<g>
								<g>
									<path fill="#ABB1CF" d="M261.1,167.3c0,0,3.7-12.5,17.4-26.7c9.6-10.1,10.9-31.1,10.9-31.1s-21.8,7.2-27.6,23.4
										C255.9,149,261.1,167.3,261.1,167.3z"/>
								</g>
							</g>
						</g>
					</g>
				</g>
				<g>
					<g>
						<g>
							<g>
								<g>
									<g>
										<path fill="#7A83A8" d="M261.1,167.6c0.1,0,0.3-0.2,0.2-0.3c-0.2-12.6,4.2-23,7.9-29.6c4-7.1,8.2-11.2,8.2-11.3
											c0.1-0.1,0.1-0.3,0-0.5c-0.1-0.1-0.3-0.1-0.5,0c0,0-4.2,4.2-8.3,11.4c-3.8,6.6-8.2,17.2-8,29.9
											C260.7,167.5,260.8,167.6,261.1,167.6C261.1,167.6,261.1,167.6,261.1,167.6z"/>
									</g>
								</g>
							</g>
						</g>
					</g>
				</g>
			</g>
		</g>
		<rect x="86.5" y="138.1" fill="#536BCB" width="175.6" height="130.6"/>
		<polygon fill="#143791" points="136.6,217.8 95.3,218.9 95.3,215.9 136.6,215.9 		"/>
		<polygon fill="#143791" points="253.2,217.8 212,218.9 212,215.9 253.2,215.9 		"/>
		<g>
			<g>
				<g>
					<path fill="#FFFFFF" d="M272.2,138.1v20.3H76.4v-20.3h0c23.6-4.3,31.1-44.3,31.1-44.3H241C241,93.8,248.6,133.8,272.2,138.1z"
						/>
				</g>
			</g>
			<g>
				<g>
					<rect x="76.4" y="138.1" fill="#D9DAEB" width="195.8" height="20.3"/>
				</g>
			</g>
			<g>
				<g>
					<path fill="#FA7160" d="M129.3,93.8c0,0-4.4,40-28,44.3v20.3H76.4v-20.3c23.6-4.3,31.1-44.3,31.1-44.3H129.3z"/>
				</g>
			</g>
			<g>
				<g>
					<path fill="#FA7160" d="M272.2,138.1v20.3h-24.9v-20.3c-23.6-4.3-29.3-44.3-29.3-44.3h23C241,93.8,248.6,133.8,272.2,138.1z"/>
				</g>
			</g>
			<g>
				<g>
					<path fill="#FA7160" d="M156.8,138.3v20.2h-23.3l-0.6-20.3c14.8-11.4,16-44.3,16-44.3h15.4C165,117.6,156.8,138.3,156.8,138.3z
						"/>
				</g>
			</g>
			<g>
				<g>
					<path fill="#FA7160" d="M212.8,138.1l-0.6,20.3h-23.3v-20.2c0,0-8.2-20.6-7.5-44.5h15.4C196.8,93.8,198,126.8,212.8,138.1z"/>
				</g>
			</g>
			<g>
				<g>
					<rect x="76.4" y="138.1" fill="#D9473C" width="24.9" height="20.3"/>
				</g>
			</g>
			<g>
				<g>
					<polygon fill="#D9473C" points="272.2,138.1 272.2,158.5 247.3,158.5 247.3,138.1 272.2,138.1 					"/>
				</g>
			</g>
			<g>
				<g>
					<path fill="#D9473C" d="M156.9,138.1c0,0.1-0.1,0.1-0.1,0.1v20.2h-23.3l-0.6-20.3H156.9z"/>
				</g>
			</g>
			<g>
				<g>
					<path fill="#D9473C" d="M212.8,138.1l-0.6,20.3h-23.3v-20.2c0,0,0,0-0.1-0.1H212.8z"/>
				</g>
			</g>
		</g>
		<g>
			<g>
				<rect x="147.5" y="171.7" fill="#001A53" width="53.6" height="97"/>
			</g>
			<path fill="#FDA65A" d="M196.3,223.9c2.4,3.7-1.6,7.7-5.3,5.3c-0.2-0.2-0.5-0.4-0.6-0.6c-2.4-3.7,1.6-7.7,5.3-5.3
				C195.9,223.4,196.1,223.7,196.3,223.9z"/>
			<g>
				<g>
					<rect x="152.2" y="176.4" fill="#D9DAEB" width="44.1" height="41"/>
				</g>
			</g>
			<g>
				<polygon fill="#EBEBFB" points="178.1,176.4 152.2,202.3 152.2,185.5 161.3,176.4 				"/>
			</g>
			<g>
				<polygon fill="#EBEBFB" points="196.3,203.9 196.3,217.4 182.9,217.4 				"/>
			</g>
			<g>
				<polygon fill="#EBEBFB" points="196.3,176.4 196.3,184.3 163.3,217.4 155.3,217.4 196.3,176.4 				"/>
			</g>
		</g>
		<polygon fill="#143791" points="86.5,166.9 262.1,162.1 262.1,158.5 86.5,158.5 		"/>
		<g>
			<g>
				<path fill="#001A53" d="M95.3,215.9v-20.6c0-11.4,9.3-20.6,20.6-20.6c11.4,0,20.6,9.3,20.6,20.6v20.6H95.3z"/>
				<path fill="#D9DAEB" d="M133.3,195.2v16.9H98.7v-16.9c0-9.3,7.6-16.9,16.9-16.9h0.7c0.7,0,1.3,0,1.9,0.1c3.1,0.4,6,1.6,8.4,3.4
					c1.4,1.1,2.7,2.4,3.7,3.9C132.2,188.5,133.3,191.7,133.3,195.2z"/>
				<g>
					<path fill="#EBEBFB" d="M118.3,178.4L98.7,198v-2.8c0-9.3,7.6-16.9,16.9-16.9h0.7C117,178.3,117.6,178.3,118.3,178.4z"/>
				</g>
				<g>
					<polygon fill="#EBEBFB" points="133.3,200.6 133.3,212.2 121.7,212.2 					"/>
				</g>
				<g>
					<path fill="#EBEBFB" d="M130.4,185.7l-26.4,26.4h-5.3v-2.3l28-28C128.1,182.9,129.3,184.3,130.4,185.7z"/>
				</g>
			</g>
			<g>
				<path fill="#001A53" d="M212,215.9v-20.6c0-11.4,9.3-20.6,20.6-20.6c11.4,0,20.6,9.3,20.6,20.6v20.6H212z"/>
				<path fill="#D9DAEB" d="M249.9,195.2v16.9h-34.6v-16.9c0-9.3,7.6-16.9,16.9-16.9h0.7c0.7,0,1.3,0,1.9,0.1c3.1,0.4,6,1.6,8.4,3.4
					c1.4,1.1,2.7,2.4,3.7,3.9C248.8,188.5,249.9,191.7,249.9,195.2z"/>
				<g>
					<path fill="#EBEBFB" d="M234.9,178.4L215.3,198v-2.8c0-9.3,7.6-16.9,16.9-16.9h0.7C233.6,178.3,234.3,178.3,234.9,178.4z"/>
				</g>
				<g>
					<polygon fill="#EBEBFB" points="249.9,200.6 249.9,212.2 238.3,212.2 					"/>
				</g>
				<g>
					<path fill="#EBEBFB" d="M247,185.7l-26.4,26.4h-5.3v-2.3l28-28C244.7,182.9,246,184.3,247,185.7z"/>
				</g>
			</g>
		</g>
		<path fill="#001A53" d="M268,276.6H80.5c-1.1,0-2.1-0.9-2.1-2.1v-3.7c0-1.1,0.9-2.1,2.1-2.1H268c1.1,0,2.1,0.9,2.1,2.1v3.7
			C270.1,275.7,269.2,276.6,268,276.6z"/>
		<path fill="#30599C" d="M280.1,285.5H68.4c-1.3,0-2.3-1-2.3-2.3v-4.2c0-1.3,1-2.3,2.3-2.3h211.7c1.3,0,2.3,1,2.3,2.3v4.2
			C282.5,284.4,281.4,285.5,280.1,285.5z"/>
	</g>
	<g>
		<g>
			<g>
				<g>
					<path fill="#FA7160" d="M317.5,244.1c0-3.2,2.6-5.8,5.8-5.8c3.2,0,5.8,2.6,5.8,5.8s-2.6,5.8-5.8,5.8
						C320.1,249.8,317.5,247.3,317.5,244.1z M319.1,244.1c0,2.3,1.9,4.2,4.2,4.2c2.3,0,4.2-1.9,4.2-4.2s-1.9-4.2-4.2-4.2
						C321,239.9,319.1,241.8,319.1,244.1z"/>
				</g>
			</g>
			<g>
				<g>
					<g>
						<path fill="#536BCB" d="M312.4,261c0.4,0,0.7-0.3,0.7-0.7v-4.5c0-0.4-0.3-0.7-0.7-0.7c-0.4,0-0.7,0.3-0.7,0.7v4.5
							C311.6,260.7,312,261,312.4,261z"/>
					</g>
				</g>
				<g>
					<g>
						<path fill="#536BCB" d="M313.9,262.5h4.5c0.4,0,0.7-0.3,0.7-0.7c0-0.4-0.3-0.7-0.7-0.7h-4.5c-0.4,0-0.7,0.3-0.7,0.7
							C313.1,262.2,313.4,262.5,313.9,262.5z"/>
					</g>
				</g>
				<g>
					<g>
						<path fill="#536BCB" d="M306.4,262.5h4.5c0.4,0,0.7-0.3,0.7-0.7c0-0.4-0.3-0.7-0.7-0.7h-4.5c-0.4,0-0.7,0.3-0.7,0.7
							C305.7,262.2,306,262.5,306.4,262.5z"/>
					</g>
				</g>
				<g>
					<g>
						<path fill="#536BCB" d="M312.4,268.2c0.4,0,0.7-0.3,0.7-0.7v-4.5c0-0.4-0.3-0.7-0.7-0.7c-0.4,0-0.7,0.3-0.7,0.7v4.5
							C311.6,267.8,312,268.2,312.4,268.2z"/>
					</g>
				</g>
			</g>
		</g>
		<g>
			<g>
				<g>
					<path fill="#536BCB" d="M78.5,85.6c0-3.2,2.6-5.8,5.8-5.8s5.8,2.6,5.8,5.8s-2.6,5.8-5.8,5.8S78.5,88.8,78.5,85.6z M80.1,85.6
						c0,2.3,1.9,4.2,4.2,4.2s4.2-1.9,4.2-4.2s-1.9-4.2-4.2-4.2S80.1,83.4,80.1,85.6z"/>
				</g>
			</g>
			<g>
				<g>
					<g>
						<path fill="#FA7160" d="M66.7,96.6c0.4,0,0.7-0.3,0.7-0.7v-4.5c0-0.4-0.3-0.7-0.7-0.7c-0.4,0-0.7,0.3-0.7,0.7v4.5
							C65.9,96.3,66.3,96.6,66.7,96.6z"/>
					</g>
				</g>
				<g>
					<g>
						<path fill="#FA7160" d="M68.1,98.1h4.5c0.4,0,0.7-0.3,0.7-0.7c0-0.4-0.3-0.7-0.7-0.7h-4.5c-0.4,0-0.7,0.3-0.7,0.7
							C67.4,97.8,67.7,98.1,68.1,98.1z"/>
					</g>
				</g>
				<g>
					<g>
						<path fill="#FA7160" d="M60.7,98.1h4.5c0.4,0,0.7-0.3,0.7-0.7c0-0.4-0.3-0.7-0.7-0.7h-4.5c-0.4,0-0.7,0.3-0.7,0.7
							C60,97.8,60.3,98.1,60.7,98.1z"/>
					</g>
				</g>
				<g>
					<g>
						<path fill="#FA7160" d="M66.7,103.7c0.4,0,0.7-0.3,0.7-0.7v-4.5c0-0.4-0.3-0.7-0.7-0.7c-0.4,0-0.7,0.3-0.7,0.7v4.5
							C65.9,103.4,66.3,103.7,66.7,103.7z"/>
					</g>
				</g>
			</g>
		</g>
	</g>
	<g>
		<g>
			<g>
				<path fill="#D9473C" d="M283.9,160.7c0.2-0.1,0.2-0.2,0.2-0.2h-3.6c0,0,0,0,0,0c-1.3,0-2.6,0-3.9,0.1
					c-20.1,1.3-36.2,18.2-36.7,38.4c-0.2,7.6,1.8,14.8,5.4,20.9c1.7,3,3.5,5.9,5.2,8.9l25.4,45.8c1.9,3.4,5.5,5.5,9.4,5.5l0,0v-11.4
					l12.3-22.3c5-8.9,10.3-17.6,15.6-26.4c3.5-5.9,5.5-12.8,5.5-20.1C318.7,179.7,303.5,163,283.9,160.7z M279.3,211.8
					c-9.2,0-16.6-7.4-16.6-16.6c0-9.2,7.4-16.6,16.6-16.6c9.2,0,16.6,7.4,16.6,16.6C295.9,204.3,288.5,211.8,279.3,211.8z"/>
			</g>
		</g>
		<g>
			<g>
				<path fill="#FA7160" d="M269,195.2c0-9.2,7.4-16.6,16.6-16.6c9.2,0,16.6,7.4,16.6,16.6c0,9.2-7.5,16.6-16.6,16.6
					C276.4,211.8,269,204.3,269,195.2z M246.2,198.9c-0.2,7.6,1.8,14.8,5.4,20.9c1.7,3,3.5,5.9,5.2,8.9l28.5,51.4l18.7-33.7
					c5-8.9,10.3-17.6,15.6-26.4c3.5-5.9,5.5-12.8,5.5-20.1c0-22.6-19.1-40.9-42.1-39.3C262.8,161.9,246.7,178.7,246.2,198.9z"/>
			</g>
		</g>
	</g>
	<g>
		<path fill="#536BCB" d="M36,121.9c-11.1,17.2,7.2,35.6,24.5,24.5c1.1-0.7,2.1-1.7,2.8-2.8c11.1-17.2-7.2-35.6-24.5-24.5
			C37.7,119.8,36.8,120.8,36,121.9z"/>
		<g>
			<path fill="#FFFFFF" d="M57.4,126.2c0-0.2-0.1-0.4-0.1-0.6c-0.2-0.7-0.5-1.4-1-1.9c-0.3-0.4-0.8-0.7-1.2-1
				c-0.6-0.4-1.3-0.2-1.8,0.4c-0.8,1-1.7,2-2.5,3c-0.5,0.6-0.4,1.5,0.2,2c0.4,0.4,0.9,0.8,1.4,1.1c0.1,0,0.1,0.1,0.2,0.1
				c-1.1,3-3,5.2-5.6,6.9c-0.3-0.3-0.7-0.6-1-0.8c-0.2-0.1-0.3-0.3-0.5-0.4c-0.5-0.4-1.2-0.5-1.7-0.1c-0.2,0.1-0.3,0.3-0.5,0.5
				c-0.8,0.9-1.5,1.8-2.2,2.7c-0.2,0.3-0.4,0.6-0.4,1c0,0.1,0,0.3,0,0.4c0.1,0.2,0.2,0.5,0.4,0.7c0.4,0.4,0.9,0.8,1.5,1.1
				c0.7,0.3,1.4,0.5,2.1,0.4c0.5,0,1-0.1,1.4-0.3c1.2-0.3,2.3-0.9,3.4-1.6c1-0.7,2-1.5,2.8-2.4c1.2-1.2,2.2-2.5,3.1-3.9
				c0.7-1.1,1.4-2.2,1.8-3.5c0.2-0.6,0.3-1.3,0.4-1.9c0-0.3,0-0.5,0-0.8C57.5,126.8,57.5,126.5,57.4,126.2z"/>
		</g>
		<path fill="#536BCB" d="M63.3,139.4l4.1,11c0.3,0.7-0.4,1.5-1.2,1.2l-10.9-4.1L63.3,139.4z"/>
	</g>
</g>
</svg>
